<svg xmlns="http://www.w3.org/2000/svg" width="36" height="36" viewBox="0 0 36 36">
    <g fill="none" fill-rule="evenodd">
        <g fill="#FF5100">
            <path d="M56 147c0-1.704-.72-3.24-1.871-4.322.456-1.512.312-3.202-.54-4.678-.853-1.476-2.244-2.446-3.782-2.807-.361-1.538-1.33-2.93-2.807-3.782-1.476-.852-3.166-.996-4.678-.54C41.24 129.72 39.704 129 38 129c-1.704 0-3.24.72-4.322 1.871-1.512-.456-3.202-.312-4.678.54-1.476.853-2.446 2.244-2.807 3.782-1.538.361-2.93 1.33-3.782 2.807-.852 1.476-.996 3.166-.54 4.678C20.72 143.76 20 145.296 20 147c0 1.704.72 3.24 1.871 4.322-.456 1.512-.312 3.202.54 4.678.853 1.476 2.244 2.446 3.782 2.807.361 1.538 1.33 2.93 2.807 3.781 1.476.853 3.166.997 4.678.54C34.76 164.28 36.296 165 38 165c1.704 0 3.24-.72 4.322-1.871 1.512.456 3.202.312 4.678-.54 1.476-.853 2.446-2.244 2.807-3.782 1.538-.361 2.93-1.33 3.781-2.807.853-1.476.997-3.166.54-4.678C55.28 150.24 56 148.704 56 147" transform="translate(-20 -129)"/>
        </g>
    </g>
</svg>
